<mxfile host="app.diagrams.net" modified="2020-11-26T09:16:25.042Z" agent="5.0 (X11; Linux x86_64) AppleWebKit/537.36 (KHTML, like Gecko) Chrome/86.0.4240.111 Safari/537.36" etag="8UaoBKi6yzRrpTgLyW14" version="13.10.3" type="github">
  <diagram id="pPJsQlxeMcQTfx_KdI9p" name="Page-1">
    <mxGraphModel dx="717" dy="721" grid="1" gridSize="10" guides="1" tooltips="1" connect="1" arrows="1" fold="1" page="1" pageScale="1" pageWidth="850" pageHeight="1100" math="0" shadow="0">
      <root>
        <mxCell id="0" />
        <mxCell id="1" parent="0" />
        <mxCell id="nIdOmbxaFLIyWObUF5FR-1" value="Host1" style="rounded=0;whiteSpace=wrap;html=1;fillColor=#f8cecc;strokeColor=#b85450;" vertex="1" parent="1">
          <mxGeometry x="30" y="120" width="260" height="250" as="geometry" />
        </mxCell>
        <mxCell id="nIdOmbxaFLIyWObUF5FR-2" value="Host2" style="rounded=0;whiteSpace=wrap;html=1;fillColor=#f8cecc;strokeColor=#b85450;" vertex="1" parent="1">
          <mxGeometry x="430" y="120" width="260" height="250" as="geometry" />
        </mxCell>
        <mxCell id="nIdOmbxaFLIyWObUF5FR-3" value="VM1" style="rounded=0;whiteSpace=wrap;html=1;fillColor=#fff2cc;strokeColor=#d6b656;" vertex="1" parent="1">
          <mxGeometry x="50" y="150" width="90" height="60" as="geometry" />
        </mxCell>
        <mxCell id="nIdOmbxaFLIyWObUF5FR-4" value="VM2" style="rounded=0;whiteSpace=wrap;html=1;fillColor=#fff2cc;strokeColor=#d6b656;" vertex="1" parent="1">
          <mxGeometry x="450" y="140" width="90" height="60" as="geometry" />
        </mxCell>
        <mxCell id="nIdOmbxaFLIyWObUF5FR-5" value="10.10.10.0/24" style="rounded=0;whiteSpace=wrap;html=1;fillColor=#e1d5e7;strokeColor=#9673a6;" vertex="1" parent="1">
          <mxGeometry x="20" y="420" width="660" height="30" as="geometry" />
        </mxCell>
        <mxCell id="nIdOmbxaFLIyWObUF5FR-7" value="ens3 .1" style="text;html=1;strokeColor=none;fillColor=none;align=center;verticalAlign=middle;whiteSpace=wrap;rounded=0;" vertex="1" parent="1">
          <mxGeometry x="130" y="340" width="40" height="20" as="geometry" />
        </mxCell>
        <mxCell id="nIdOmbxaFLIyWObUF5FR-9" value="ens3&lt;br&gt;.2" style="text;html=1;strokeColor=none;fillColor=none;align=center;verticalAlign=middle;whiteSpace=wrap;rounded=0;" vertex="1" parent="1">
          <mxGeometry x="530" y="340" width="40" height="20" as="geometry" />
        </mxCell>
        <mxCell id="nIdOmbxaFLIyWObUF5FR-12" value="" style="rounded=0;whiteSpace=wrap;html=1;direction=south;fillColor=#e1d5e7;strokeColor=#9673a6;" vertex="1" parent="1">
          <mxGeometry x="145" y="370" width="10" height="50" as="geometry" />
        </mxCell>
        <mxCell id="nIdOmbxaFLIyWObUF5FR-13" value="" style="rounded=0;whiteSpace=wrap;html=1;direction=south;fillColor=#e1d5e7;strokeColor=#9673a6;" vertex="1" parent="1">
          <mxGeometry x="540" y="370" width="10" height="50" as="geometry" />
        </mxCell>
        <mxCell id="nIdOmbxaFLIyWObUF5FR-14" value="vnet0" style="text;html=1;strokeColor=#82b366;fillColor=#d5e8d4;align=center;verticalAlign=middle;whiteSpace=wrap;rounded=0;" vertex="1" parent="1">
          <mxGeometry x="75" y="190" width="40" height="20" as="geometry" />
        </mxCell>
        <mxCell id="nIdOmbxaFLIyWObUF5FR-15" value="vnet0" style="text;html=1;strokeColor=#82b366;fillColor=#d5e8d4;align=center;verticalAlign=middle;whiteSpace=wrap;rounded=0;" vertex="1" parent="1">
          <mxGeometry x="477.5" y="180" width="35" height="20" as="geometry" />
        </mxCell>
        <mxCell id="nIdOmbxaFLIyWObUF5FR-17" value="Br1" style="rounded=0;whiteSpace=wrap;html=1;fillColor=#d80073;strokeColor=#A50040;fontColor=#ffffff;" vertex="1" parent="1">
          <mxGeometry x="50" y="260" width="110" height="50" as="geometry" />
        </mxCell>
        <mxCell id="nIdOmbxaFLIyWObUF5FR-18" value="Br2" style="rounded=0;whiteSpace=wrap;html=1;fillColor=#d80073;strokeColor=#A50040;fontColor=#ffffff;" vertex="1" parent="1">
          <mxGeometry x="445" y="260" width="105" height="50" as="geometry" />
        </mxCell>
        <mxCell id="nIdOmbxaFLIyWObUF5FR-19" value="" style="rounded=0;whiteSpace=wrap;html=1;direction=south;fillColor=#d5e8d4;strokeColor=#82b366;" vertex="1" parent="1">
          <mxGeometry x="90" y="210" width="10" height="50" as="geometry" />
        </mxCell>
        <mxCell id="nIdOmbxaFLIyWObUF5FR-20" value="" style="rounded=0;whiteSpace=wrap;html=1;direction=south;fillColor=#d5e8d4;strokeColor=#82b366;" vertex="1" parent="1">
          <mxGeometry x="492.5" y="200" width="10" height="60" as="geometry" />
        </mxCell>
        <mxCell id="nIdOmbxaFLIyWObUF5FR-22" value="10.0.0.1/24" style="text;html=1;strokeColor=none;fillColor=none;align=center;verticalAlign=middle;whiteSpace=wrap;rounded=0;" vertex="1" parent="1">
          <mxGeometry x="80" y="290" width="40" height="20" as="geometry" />
        </mxCell>
        <mxCell id="nIdOmbxaFLIyWObUF5FR-24" value="10.0.0.2/24" style="text;html=1;strokeColor=none;fillColor=none;align=center;verticalAlign=middle;whiteSpace=wrap;rounded=0;" vertex="1" parent="1">
          <mxGeometry x="470" y="290" width="50" height="20" as="geometry" />
        </mxCell>
        <mxCell id="nIdOmbxaFLIyWObUF5FR-25" value="10.0.0.101" style="text;html=1;strokeColor=none;fillColor=none;align=center;verticalAlign=middle;whiteSpace=wrap;rounded=0;" vertex="1" parent="1">
          <mxGeometry x="80" y="150" width="40" height="20" as="geometry" />
        </mxCell>
        <mxCell id="nIdOmbxaFLIyWObUF5FR-26" value="10.0.0.102" style="text;html=1;strokeColor=none;fillColor=none;align=center;verticalAlign=middle;whiteSpace=wrap;rounded=0;" vertex="1" parent="1">
          <mxGeometry x="478.5" y="140" width="40" height="20" as="geometry" />
        </mxCell>
        <mxCell id="nIdOmbxaFLIyWObUF5FR-27" value="" style="curved=1;endArrow=classic;html=1;exitX=0;exitY=0.5;exitDx=0;exitDy=0;entryX=0;entryY=0.5;entryDx=0;entryDy=0;shape=link;shadow=1;" edge="1" parent="1" source="nIdOmbxaFLIyWObUF5FR-19" target="nIdOmbxaFLIyWObUF5FR-20">
          <mxGeometry width="50" height="50" relative="1" as="geometry">
            <mxPoint x="320" y="380" as="sourcePoint" />
            <mxPoint x="370" y="330" as="targetPoint" />
            <Array as="points">
              <mxPoint x="95" y="330" />
              <mxPoint x="150" y="360" />
              <mxPoint x="150" y="395" />
              <mxPoint x="150" y="440" />
              <mxPoint x="220" y="430" />
              <mxPoint x="270" y="430" />
              <mxPoint x="550" y="440" />
              <mxPoint x="540" y="410" />
              <mxPoint x="550" y="380" />
              <mxPoint x="498" y="290" />
            </Array>
          </mxGeometry>
        </mxCell>
        <mxCell id="nIdOmbxaFLIyWObUF5FR-30" value="Text" style="edgeLabel;html=1;align=center;verticalAlign=middle;resizable=0;points=[];" vertex="1" connectable="0" parent="nIdOmbxaFLIyWObUF5FR-27">
          <mxGeometry x="0.6163" y="2" relative="1" as="geometry">
            <mxPoint as="offset" />
          </mxGeometry>
        </mxCell>
        <mxCell id="nIdOmbxaFLIyWObUF5FR-31" value="Text" style="edgeLabel;html=1;align=center;verticalAlign=middle;resizable=0;points=[];" vertex="1" connectable="0" parent="nIdOmbxaFLIyWObUF5FR-27">
          <mxGeometry x="0.4038" y="5" relative="1" as="geometry">
            <mxPoint as="offset" />
          </mxGeometry>
        </mxCell>
        <mxCell id="nIdOmbxaFLIyWObUF5FR-32" value="Vxlan10" style="text;html=1;strokeColor=none;fillColor=none;align=center;verticalAlign=middle;whiteSpace=wrap;rounded=0;" vertex="1" parent="1">
          <mxGeometry x="320" y="390" width="40" height="20" as="geometry" />
        </mxCell>
      </root>
    </mxGraphModel>
  </diagram>
</mxfile>
